<?xml version="1.0" encoding="UTF-8"?>
<!DOCTYPE svg PUBLIC "-//W3C//DTD SVG 1.1//EN" "http://www.w3.org/Graphics/SVG/1.1/DTD/svg11.dtd">
<!-- Creator: CorelDRAW 2021.5 -->
<svg xmlns="http://www.w3.org/2000/svg" xml:space="preserve" width="135.45mm" height="102.645mm" version="1.1" style="shape-rendering:geometricPrecision; text-rendering:geometricPrecision; image-rendering:optimizeQuality; fill-rule:evenodd; clip-rule:evenodd"
viewBox="0 0 501.75 380.23"
 xmlns:xlink="http://www.w3.org/1999/xlink"
 xmlns:xodm="http://www.corel.com/coreldraw/odm/2003">
 <defs>
  <style type="text/css">
   <![CDATA[
    .fil0 {fill:black}
   ]]>
  </style>
 </defs>
 <g id="Layer_x0020_1">
  <metadata id="CorelCorpID_0Corel-Layer"/>
  <path class="fil0" d="M220.5 327.31c-6.76,0 -14.03,-6.91 -17.24,-11.18 -4.43,-5.9 -9.22,-9.94 -14.37,-15.03 -15.31,-15.14 -4.35,-12.01 -45.81,-12.01l-101.96 0.04c-7.64,0.02 -6.43,-1.07 -10.74,-3.96 0,-4.72 0.19,-10.78 7.84,-10.78l273.41 0c10.05,0 11.17,14.35 -0.93,14.75l-36.31 -0.05c-8.04,-0.03 -10.59,-0.73 -14.98,3.64l-17.61 18.65c-5.31,5.26 -11.7,15.92 -21.32,15.92zm38.22 -190.12l0 18.62c4.61,3.09 1.71,3.92 8.82,3.92 2.44,0 3.69,-2.45 5.88,-3.92l0 -22.54c-1.97,-1.32 -3.96,-3.92 -6.86,-3.92 -4.74,0 -7.84,3.1 -7.84,7.84zm-91.14 -3.92c0,19.28 -2.96,26.46 8.82,26.46 2.44,0 3.69,-2.45 5.88,-3.92 0,-10.74 2.49,-26.46 -6.86,-26.46 -4.45,0 -5.11,2.09 -7.84,3.92zm-92.12 6.86c0,7.53 -1.82,19.6 7.84,19.6 10.15,0 7.84,-11.41 7.84,-22.54 0,-9.39 -15.68,-12.07 -15.68,2.94zm46.06 -32.34c0,8.72 -2.14,22.54 6.86,22.54 10.42,0 8.82,-12.18 8.82,-19.6 0,-15.47 -15.68,-12.73 -15.68,-2.94zm91.14 0c0,8.75 -2.14,22.54 7.84,22.54 9.74,0 7.84,-12.93 7.84,-20.58 0,-14.24 -15.68,-11.73 -15.68,-1.96zm-212.66 224.5l0 -7.71c0.56,-6.22 2.5,-12.26 6.05,-17.69l5.62 -7.12c0.68,-0.68 2.23,-1.84 3.23,-2.65 2.49,-2.04 0.65,-1.33 3.73,-2.15 -0.98,-4.23 -2.94,-5.37 -2.94,-10.78 0,-10.89 2.11,-12.5 6.86,-19.6 -3.12,-5.89 -5.04,-7.36 -6.64,-14.93 -1.97,-9.36 0.05,-8.96 0.76,-17.41 -1.87,-2.79 -2.86,-2.72 -4.61,-6.17 -4.61,-9.07 -2.43,-22.92 5.44,-29.26 2.35,-1.89 2.17,-0.31 3.09,-3.77 -5.52,-1.29 -10.97,-7.1 -13.92,-11.56 -3.48,-5.24 -6.66,-10.41 -6.66,-18.82 0,-23.23 3.74,-36.43 14.51,-54.09 17.63,-28.9 49.8,-47.83 84.47,-47.83l104.86 0c4.45,0 5.11,2.09 7.84,3.92 0,9.03 -0.14,11.86 -13.71,11.77l-103.91 -0.03c-12.88,-0.04 -25.93,4.59 -36.28,10.76 -1.12,0.67 -1.9,1.04 -3.1,1.8 -14.59,9.18 -26.92,23.22 -33.26,39.26 -2.2,5.55 -3.59,9.42 -5.02,16.54 -3.62,18.08 -0.02,37.5 20.84,37.5l276.36 0c3.49,0 5.55,-0.84 7.87,-1.93 23.03,-10.87 10.32,-47.77 1.98,-61.81 -3.09,-5.2 -5.78,-9.18 -10.08,-13.44 -17.51,-17.31 -38.91,-28.75 -65.42,-28.66 -3.2,0.01 -8.66,0.31 -11.59,-0.17 -4.12,-0.68 -4.21,-1.86 -7.03,-3.75l0 -7.84c2.73,-1.83 3.39,-3.92 7.84,-3.92 31.33,0 20.32,-0.35 47.04,5.88 0,-15.66 -4.77,-25.79 5.86,-32.36 5.63,-3.48 40.23,-5.77 44.12,-3.9 0,-7.21 -0.51,-15.44 1.37,-21.17 1.33,-4.05 7.38,-9.21 12.35,-9.21l34.3 0c5.82,0 11.23,5.65 12.59,9.95 1.72,5.41 1.13,13.51 1.13,20.43 1.7,-0.82 4.35,-1.96 6.86,-1.96l30.17 2.17c22.37,3.15 15.89,17.06 15.89,29.19 14.68,0 25.6,-2.23 32.75,3.51 3.25,2.61 5.47,6.95 5.47,12.17l0 46.06c4.67,0 14.7,-1.08 14.7,6.86 0,12.63 -4.8,50.67 -5.91,65.63l-8.21 80.97c-0.81,4.96 -1.32,11.15 -1.56,16.08l-3.17 32.11c-1.38,9.69 -2.07,22.14 -3.45,31.83 -1.45,10.19 1.26,25.24 -10.04,25.24l-324.37 0c-4.74,0 -7.84,-3.1 -7.84,-7.84 0,-9.73 12.83,-7.84 22.54,-7.84 23.74,0 137.98,1.54 147.81,-1.15 12.62,-3.46 26.63,-16.95 26.63,-33.15l0 -4.9c0,-10.25 -10.33,-20.58 -20.58,-20.58l-45.08 0 -25.21 27.71c-15.4,15.01 -37.66,11.95 -50.83,-5.57 -3.37,-4.48 -6.59,-7.26 -10.44,-11.12 -4.34,-4.34 -6.13,-5.91 -9.56,-11.02l-135.24 0c-19.04,0 -29,22.5 -17.48,40.02 11.08,16.84 22.49,19.76 41.98,19.76 13.72,0 27.44,0.04 41.16,-0 7.03,-0.02 13.64,-0.48 16.29,4.33 3.66,6.63 -2.91,11.35 -5.51,11.35l-62.72 0c-7.89,0 -15.11,-2.46 -20.58,-4.9 -17.03,-7.6 -28.85,-25.28 -30.38,-43.03zm305.75 -73.59l-261.66 0c-7.04,0 -15.83,-8.29 -12.74,-21.56 17.95,0 12.59,-12.5 32.08,5.15 10.15,9.19 24.72,10.14 36.35,2.52 4.06,-2.66 7.36,-6.93 13.09,-7.49 6.33,-0.61 10.33,3.99 13.68,6.53 22.45,17.04 38.76,-5.72 47.08,-6.53 1.94,-0.19 6.31,1.05 7.66,1.77 2.98,1.6 21.01,19.8 40.2,5.91 6.83,-4.94 5.77,-6.89 16.63,-6.89 6.9,0 12.77,11.76 27.44,11.76 8.06,0 15.11,-2.97 19.38,-7.08 12.27,-11.83 15.07,-10.57 24.33,-7.22 3.58,1.29 4.62,1.57 9.21,1.57 0.15,6.58 2.12,7.7 -1.72,13.96 -2.19,3.58 -5.68,7.6 -11.02,7.6zm163.66 45.08l-51.94 0c-10.68,0 -12.18,15.68 -0.98,15.68l50.96 0c0,15.12 -3.92,29.96 -3.92,45.08l-128.38 0c1.48,-2.21 3.43,-4.37 5.07,-6.69 0.97,-1.37 1.23,-2.06 2.21,-3.67 1.07,-1.77 1.7,-2.48 2.55,-4.31 4.14,-8.93 6.32,-20.02 3.9,-30.4l37.08 -0.16c2.84,-0.56 6.04,-3.18 6.04,-6.7 0,-10.25 -10.37,-8.82 -20.58,-8.82 -10.13,0 -20.25,0 -30.38,0 -2.47,-3.69 -5.75,-6.68 -9.8,-8.82 1.88,-8.05 2.94,-1.49 2.94,-16.66 0,-5.38 -5.51,-11.21 -7.84,-14.7 7.63,-5.11 10.16,-22.45 5.88,-31.36l4.14 -3.7 140.9 -0.22 -5.88 55.85c-0.3,6.08 -1.96,13.22 -1.96,19.6zm-202.86 -69.58c-14.42,0 -9.62,-11.76 -32.34,-11.76 -22.29,0 -21.21,23.1 -42.39,5.15 -8.06,-6.84 -22.95,-6.73 -32.69,-0.84 -10.33,6.24 -3.56,7.45 -17.05,7.45 -10.76,0 -6.46,-11.76 -31.36,-11.76 -5.11,0 -10.26,2.91 -13.55,5.07 -7.52,4.93 -4.74,6.69 -15.85,6.69 -6.54,0 -9.88,-6.27 -14.1,-9.42 -16.18,-12.09 -26.69,-3.32 -39.8,-3.32 -3.36,-5.02 -2.94,-3.79 -2.94,-10.78 6.91,-4.63 5.17,-3.72 15.31,-7.23 4.83,-1.67 12.79,-5.51 18.01,-5.51l234.22 0c5.06,0 21.54,6.84 27.18,9.08 12.24,4.87 5.04,18.27 -5.21,14.07 -28.69,-11.73 -33.57,13.1 -47.44,13.1zm211.68 -21.56l-138.18 0c0,-8.69 -3.47,-10.62 -6.86,-15.68 4.43,0.1 3.89,0.98 8.82,0.98l61.74 0c9.3,0 19.09,-4.74 25.66,-10.6 14.38,-12.83 11.58,-33.33 11.58,-50.16l45.08 0c-0.22,9.92 -6.54,59.81 -7.84,75.46zm-37.24 -137.2l30.38 0 0 46.06 -30.38 0 0 -46.06zm-91.14 31.36l0 -91.14 30.38 0c0,35.76 2.12,122.57 -2.71,156.05 -1.75,12.15 6.45,10.55 -21.79,10.55 0,-12.21 -2.42,-24.81 -2.93,-37.25 -0.51,-12.28 -2.95,-21.77 -2.95,-38.21zm-16.66 -2.94l1.13 1.91 -1.13 -1.91zm62.72 79.38c-2.24,0 -1.14,-0.33 -3.92,-0.98l7.74 -85.36c0.68,-6.2 0.5,-11.24 1.18,-17.44 1.2,-10.88 2.84,-23.44 2.84,-35.38 11.48,0 19.79,1.96 30.38,1.96 0,31.69 -7.84,3.76 -7.84,38.22 0,13.78 1.41,75.94 -2.07,84.17 -3.76,8.88 -15.4,14.81 -28.31,14.81zm-62.72 -79.38c-2.82,-1.89 -9.08,-12.71 -22.95,-23.11l-6.47 -4.31c-6.4,-3.96 -2.91,-16.76 -5.86,-29.42 10.89,0 19.04,-1.96 30.38,-1.96 1.64,19.68 4.9,38.63 4.9,58.8z"/>
 </g>
</svg>
