<?xml version="1.0" encoding="UTF-8"?>
<!DOCTYPE svg PUBLIC "-//W3C//DTD SVG 1.1//EN" "http://www.w3.org/Graphics/SVG/1.1/DTD/svg11.dtd">
<!-- Creator: CorelDRAW 2021.5 -->
<svg xmlns="http://www.w3.org/2000/svg" xml:space="preserve" width="93.2784mm" height="135.45mm" version="1.1" style="shape-rendering:geometricPrecision; text-rendering:geometricPrecision; image-rendering:optimizeQuality; fill-rule:evenodd; clip-rule:evenodd"
viewBox="0 0 269.78 391.75"
 xmlns:xlink="http://www.w3.org/1999/xlink"
 xmlns:xodm="http://www.corel.com/coreldraw/odm/2003">
 <defs>
  <style type="text/css">
   <![CDATA[
    .fil0 {fill:black}
   ]]>
  </style>
 </defs>
 <g id="Layer_x0020_1">
  <metadata id="CorelCorpID_0Corel-Layer"/>
  <path class="fil0" d="M65.94 380.22l-35.01 -0.12 -0.57 -0.56 -2.36 -45.18 55.75 -21.36 -17.81 67.22zm188.42 11.53l-9.28 0c-3.39,-0.39 -5.26,-1.89 -5.26,-6.89 0,-7.83 13.53,-1.58 18.15,-7.68l-3.77 -67.31 2.46 -50.49 -99.47 0c0,33.26 3.13,61.57 -0.17,95.47 -2.71,27.82 -5.47,25.42 22.36,25.42 8.42,0 16.83,0 25.25,0 6.69,0 19.89,-2.06 19.89,4.59 0,2.96 -1.01,6.89 -4.59,6.89l-187.46 0c-17.22,0 -14.84,-22.17 -15.29,-39.04 -0.39,-14.75 -0.87,-36.83 -2.56,-51.77l-5.11 -102.78c-4.42,-1.03 -9.18,-5.58 -9.18,-10.71 0,-13.76 -3.27,-33.27 10.71,-34.43 0,-14.44 0.51,-26.78 14.54,-26.78 4.79,0 13.01,-1.07 13.01,6.12 0,10.85 -15.3,2.5 -15.3,8.42l0 11.48 130.48 -0.07 2.65 -13.71c-17.85,0 -35.71,-0 -53.56,-0 -9.39,0 -48.97,3.34 -48.97,-4.59 0,-10.25 6.35,-7.65 27.54,-7.65 0,-65.72 -5.08,-63.51 26.78,-63.51 4.77,0 10.71,5.12 10.71,9.95l0 53.56 39.68 -0.02 14.64 -75.73c-14.31,-1.19 -11.48,-21.96 -11.48,-35.2 0,-8.32 4.96,-15.3 13.01,-15.3l65.04 0c5.15,0 11.48,6.32 11.48,11.48l0 26.78c0,6.18 -5.01,11.77 -10.71,12.24l15.36 81.04c4.23,21.5 13.71,59.36 13.71,81.93 0.79,23.76 -2.56,68.23 -3.06,94.88 -0.32,17.32 2.32,34.11 2.3,50.5 -0.02,15.73 3.2,32.9 -14.54,32.9zm2.3 -144.61l-52.03 0 23.29 -77.94 23.38 -0.1c0,9.89 5.17,25.12 6.01,36.84 1.07,14.99 -0.65,26.89 -0.65,41.21zm-64.64 -0.11l-35.59 0.11 0 -15.3 45.01 -17.17 -9.42 32.36zm-44.89 62.86l-3.27 65.01 0.32 5.37 -65.8 0 48.18 -181.34 18.39 0.01 -1.44 0.05 3.61 110.9zm-120.01 12.24l-5.51 -123.18 92.74 -0.01c-2.88,6.01 -8.85,32.41 -11.01,41.01 -3.56,14.16 -7.47,27.81 -11.17,41.63 -5.61,20.94 0.5,15.24 -27,25.79 -11.58,4.44 -27.46,9.68 -38.04,14.75zm128.54 -102.53l6.48 -50.56 53.2 0.06c-1.63,7.01 -4.05,14.38 -6.22,21.32 -3.8,12.18 -1.73,9.37 -13.75,13.8 -11.79,4.35 -28.86,10.18 -39.71,15.38zm-8.63 -32.18l-134.45 0.04c-1.5,-6.42 -0.76,-13.98 -0.76,-20.66 0,-4.12 27.48,-2.3 32.9,-2.3l106.35 0 -4.04 22.91zm29.31 -90.24l26.75 -3.12 6.13 0.06 28.22 3.74 11.34 59.81 -83.94 -0.04 11.5 -60.44zm-82.65 -22.19l13.77 0 0 51.26 -13.77 0 0 -51.26zm84.93 9.95l6.39 -33.62 43.34 -0.05 6.63 33.71 -28.78 -3.41c-6.63,-0.6 -17.66,3.36 -27.59,3.36zm-4.59 -48.2l0 -22.95c0,-1.76 0.53,-2.3 2.3,-2.3l60.45 0c1.79,0 3.06,1.27 3.06,3.06l0 22.19c0,1.76 -0.53,2.3 -2.3,2.3l-61.21 0c-1.76,0 -2.3,-0.53 -2.3,-2.3z"/>
 </g>
</svg>
